<?xml version="1.0" standalone="no"?><!DOCTYPE svg PUBLIC "-//W3C//DTD SVG 1.1//EN" "http://www.w3.org/Graphics/SVG/1.1/DTD/svg11.dtd"><svg t="1632355135254" class="icon" viewBox="0 0 1024 1024" version="1.1" xmlns="http://www.w3.org/2000/svg" p-id="7237" xmlns:xlink="http://www.w3.org/1999/xlink" width="16" height="16"><defs><style type="text/css"></style></defs><path d="M949.646222 484.124444l-408.462222-410.055111A58.368 58.368 0 0 0 499.882667 56.888889H115.712c-32.199111 0-58.368 26.112-58.368 58.424889v384.113778c0 15.473778 6.144 30.378667 17.123556 41.301333L483.783111 950.044444a58.197333 58.197333 0 0 0 82.488889 0l383.317333-383.374222c22.755556-22.755556 22.812444-59.733333 0.056889-82.545778z m-139.605333 61.269334l-264.988445 264.988444a28.444444 28.444444 0 0 1-40.163555 0L171.008 476.501333V199.168a28.444444 28.444444 0 0 1 28.387556-28.444444h277.447111l333.141333 334.506666a28.501333 28.501333 0 0 1 0 40.220445z" fill="" p-id="7238"></path><path d="M455.224889 369.777778a85.333333 85.333333 0 1 1-170.666667 0 85.333333 85.333333 0 0 1 170.666667 0z" fill="" p-id="7239"></path></svg>